<svg width="107" height="92" viewBox="0 0 107 92" fill="none" xmlns="http://www.w3.org/2000/svg">
<path d="M32.0723 2.13556L13.0723 47.6356C35.7389 62.1356 81.6 90.7859 84 91.5859C87 92.5859 103.5 47.5852 105.572 41.6355C107.337 36.5676 106.5 36.0852 105.572 35.6355C104.645 35.1859 62.6723 17.4355 61.0723 16.6355C59.4723 15.8355 59.9633 10.4835 58.0723 9.63554C53.5 7.58522 38.6445 0.685898 36.5723 0.135559C34.5 -0.414779 32.7389 0.802226 32.0723 2.13556Z" fill="#AACCFF"/>
<path d="M92 69.585C98.0751 69.585 103 64.6601 103 58.585C103 52.5098 98.0751 47.585 92 47.585C85.9249 47.585 81 52.5098 81 58.585C81 64.6601 85.9249 69.585 92 69.585Z" fill="#F26868"/>
<path d="M93.4193 58.5852L96.6493 55.3552C96.754 55.2656 96.839 55.1553 96.899 55.0312C96.9591 54.9072 96.9928 54.772 96.9981 54.6343C97.0034 54.4966 96.9802 54.3592 96.9299 54.2309C96.8797 54.1026 96.8034 53.9861 96.706 53.8886C96.6085 53.7911 96.492 53.7149 96.3636 53.6646C96.2353 53.6143 96.098 53.5911 95.9603 53.5964C95.8225 53.6018 95.6874 53.6355 95.5633 53.6955C95.4393 53.7555 95.329 53.8406 95.2393 53.9452L91.9993 57.1752L88.7693 53.9452C88.6797 53.8406 88.5693 53.7555 88.4453 53.6955C88.3212 53.6355 88.1861 53.6018 88.0484 53.5964C87.9106 53.5911 87.7733 53.6143 87.645 53.6646C87.5167 53.7149 87.4001 53.7911 87.3027 53.8886C87.2052 53.9861 87.1289 54.1026 87.0787 54.2309C87.0284 54.3592 87.0052 54.4966 87.0105 54.6343C87.0158 54.772 87.0496 54.9072 87.1096 55.0312C87.1696 55.1553 87.2546 55.2656 87.3593 55.3552L90.5893 58.5852L87.3593 61.8152C87.2546 61.9049 87.1696 62.0152 87.1096 62.1393C87.0496 62.2633 87.0158 62.3985 87.0105 62.5362C87.0052 62.6739 87.0284 62.8112 87.0787 62.9396C87.1289 63.0679 87.2052 63.1844 87.3027 63.2819C87.4001 63.3794 87.5167 63.4556 87.645 63.5059C87.7733 63.5562 87.9106 63.5794 88.0484 63.574C88.1861 63.5687 88.3212 63.535 88.4453 63.475C88.5693 63.415 88.6797 63.3299 88.7693 63.2252L91.9993 60.0052L95.2293 63.2352C95.4206 63.3991 95.6667 63.4847 95.9184 63.475C96.17 63.4652 96.4088 63.3609 96.5869 63.1828C96.765 63.0047 96.8693 62.766 96.879 62.5143C96.8887 62.2626 96.8031 62.0165 96.6393 61.8252L93.4193 58.5852Z" fill="white"/>
<path d="M28.0713 43.1621C35.0713 45.6621 75.0713 63.6621 75.0713 63.6621C81.501 75.0859 84.0713 89.6618 84.0713 91.6621L6.57195 59.799C6.57195 58.1617 -0.800713 38.6558 0.0712891 35.1618C0.971291 31.5588 24.0713 46.162 28.0713 43.1621Z" fill="#E0EDFF"/>
</svg>
