<svg width="13" height="10" viewBox="0 0 13 10" fill="none" xmlns="http://www.w3.org/2000/svg">
<path fill-rule="evenodd" clip-rule="evenodd" d="M5.16 8.385C5.16 8.21393 5.22796 8.04988 5.34892 7.92892C5.46988 7.80795 5.63393 7.74 5.805 7.74H7.095C7.26606 7.74 7.43012 7.80795 7.55108 7.92892C7.67205 8.04988 7.74 8.21393 7.74 8.385C7.74 8.55606 7.67205 8.72012 7.55108 8.84108C7.43012 8.96204 7.26606 9.03 7.095 9.03H5.805C5.63393 9.03 5.46988 8.96204 5.34892 8.84108C5.22796 8.72012 5.16 8.55606 5.16 8.385ZM2.58 4.515C2.58 4.34394 2.64796 4.17988 2.76892 4.05892C2.88988 3.93795 3.05394 3.87 3.225 3.87H9.675C9.84606 3.87 10.0101 3.93795 10.1311 4.05892C10.252 4.17988 10.32 4.34394 10.32 4.515C10.32 4.68606 10.252 4.85012 10.1311 4.97108C10.0101 5.09205 9.84606 5.16 9.675 5.16H3.225C3.05394 5.16 2.88988 5.09205 2.76892 4.97108C2.64796 4.85012 2.58 4.68606 2.58 4.515ZM0 0.645C0 0.473935 0.0679553 0.309877 0.188916 0.188916C0.309877 0.0679553 0.473935 0 0.645 0H12.255C12.4261 0 12.5901 0.0679553 12.7111 0.188916C12.832 0.309877 12.9 0.473935 12.9 0.645C12.9 0.816065 12.832 0.980123 12.7111 1.10108C12.5901 1.22204 12.4261 1.29 12.255 1.29H0.645C0.473935 1.29 0.309877 1.22204 0.188916 1.10108C0.0679553 0.980123 0 0.816065 0 0.645Z" fill="#6A6A6A"/>
</svg>
